<?xml version="1.0" encoding="UTF-8" standalone="no"?>
<!-- Created with Inkscape (http://www.inkscape.org/) -->

<svg
   xmlns:dc="http://purl.org/dc/elements/1.1/"
   xmlns:cc="http://creativecommons.org/ns#"
   xmlns:rdf="http://www.w3.org/1999/02/22-rdf-syntax-ns#"
   xmlns:svg="http://www.w3.org/2000/svg"
   xmlns="http://www.w3.org/2000/svg"
   xmlns:sodipodi="http://sodipodi.sourceforge.net/DTD/sodipodi-0.dtd"
   xmlns:inkscape="http://www.inkscape.org/namespaces/inkscape"
   width="856.96222"
   height="552.79614"
   id="svg2"
   version="1.1"
   inkscape:version="0.48.4 r9939"
   sodipodi:docname="新規ドキュメント 1.2015_09_12_18_36_41.0.svg">
  <defs
     id="defs4" />
  <sodipodi:namedview
     id="base"
     pagecolor="#ffffff"
     bordercolor="#666666"
     borderopacity="1.0"
     inkscape:pageopacity="0.0"
     inkscape:pageshadow="2"
     inkscape:zoom="0.98994949"
     inkscape:cx="421.1936"
     inkscape:cy="243.61309"
     inkscape:document-units="px"
     inkscape:current-layer="layer2"
     showgrid="false"
     fit-margin-top="20"
     fit-margin-left="20"
     fit-margin-right="20"
     fit-margin-bottom="20"
     showguides="true"
     inkscape:guide-bbox="true"
     inkscape:window-width="1920"
     inkscape:window-height="1058"
     inkscape:window-x="1920"
     inkscape:window-y="0"
     inkscape:window-maximized="1">
    <sodipodi:guide
       orientation="1,0"
       position="42.645475,343.84787"
       id="guide3896" />
    <sodipodi:guide
       orientation="0,1"
       position="322.45772,42.822406"
       id="guide3898" />
    <sodipodi:guide
       orientation="0,1"
       position="337.61001,473.14739"
       id="guide3900" />
  </sodipodi:namedview>
  <metadata
     id="metadata7">
    <rdf:RDF>
      <cc:Work
         rdf:about="">
        <dc:format>image/svg+xml</dc:format>
        <dc:type
           rdf:resource="http://purl.org/dc/dcmitype/StillImage" />
        <dc:title></dc:title>
      </cc:Work>
    </rdf:RDF>
  </metadata>
  <g
     inkscape:groupmode="layer"
     id="layer2"
     inkscape:label="レイヤー"
     transform="translate(-83.623595,-4.0612765)">
    <path
       style="font-size:medium;font-style:normal;font-variant:normal;font-weight:normal;font-stretch:normal;text-indent:0;text-align:start;text-decoration:none;line-height:normal;letter-spacing:normal;word-spacing:normal;text-transform:none;direction:ltr;block-progression:tb;writing-mode:lr-tb;text-anchor:start;baseline-shift:baseline;color:#000000;fill:#ffa100;stroke:#362716;stroke-width:3;stroke-miterlimit:4;stroke-opacity:1;stroke-dasharray:none;marker:none;visibility:visible;display:inline;overflow:visible;enable-background:accumulate;font-family:Sans;-inkscape-font-specification:Sans"
       d="m 898.3125,26.5625 c -3.79387,-0.04249 -7.59362,1.022756 -10.8125,3.03125 L 590.25,209.625 562.78125,110.5625 c -1.10306,-4.18861 -3.60932,-7.99466 -7.0214,-10.66279 -3.41207,-2.668131 -7.71011,-4.182821 -12.0411,-4.24346 -6.23011,-0.09225 -12.43024,2.921557 -16.20638,7.87773 -3.77613,4.95618 -5.03618,11.73385 -3.29362,17.71602 l 30.5,109.90625 L 401.75,323.8125 456,207.28125 c 3.08409,-6.62776 2.14289,-14.94525 -2.34424,-20.71625 -4.48713,-5.771 -12.31611,-8.73304 -19.49951,-7.3775 L 336.5625,197.53125 397.25,93.8125 c 3.61865,-5.988897 3.76757,-13.917481 0.37637,-20.038042 -3.39121,-6.120562 -10.19244,-10.198289 -17.18887,-10.305708 -7.12739,-0.104431 -14.16838,3.926103 -17.6875,10.125 L 279.875,215.1875 c -3.84515,6.57874 -3.47038,15.38815 0.9196,21.61656 4.38998,6.22841 12.56062,9.54303 20.04915,8.13344 l 102.4375,-19.25 -62.96875,135.34375 -99.09375,60 -95.6875,-342.6875 c -1.10446,-4.193572 -3.61555,-8.00357 -7.03381,-10.672162 -3.41826,-2.668591 -7.7237,-4.180175 -12.05994,-4.234088 -6.23366,-0.07848 -12.43028,2.952574 -16.19494,7.92168 C 106.4779,76.328286 105.23721,83.114015 107,89.09375 l 98.6875,353.46875 -89.78125,54.375 c -4.52962,2.68698 -7.91767,7.23337 -9.19755,12.34211 -1.27988,5.10874 -0.43547,10.71547 2.29231,15.22063 2.72779,4.50517 7.30459,7.85201 12.42468,9.0857 5.12009,1.23369 10.71897,0.33868 15.19931,-2.42969 l 80.25,-48.59375 10.28125,36.84375 c 1.37413,5.08034 4.84248,9.56 9.41682,12.1626 4.57434,2.6026 10.19722,3.29545 15.26652,1.88114 5.06931,-1.41431 9.52137,-4.91801 12.08768,-9.51281 2.56631,-4.5948 3.21462,-10.22298 1.76023,-15.28093 l -12.75,-45.59375 83.03125,66.5625 c 4.06325,3.43986 9.54153,5.15409 14.84081,4.64389 5.29927,-0.51021 10.34987,-3.23814 13.6822,-7.39003 3.33233,-4.15189 4.90258,-9.67317 4.25385,-14.95727 C 368.09688,506.63749 365.23769,501.66001 361,498.4375 L 287.6875,439.625 C 380.77359,383.70966 472.66518,327.61528 565.8125,271.1875 L 617.71875,458.25 c 1.27145,5.18285 4.71241,9.79703 9.31727,12.49404 4.60486,2.697 10.3125,3.44105 15.45488,2.0147 5.14238,-1.42636 9.65126,-5.00418 12.20892,-9.68787 2.55766,-4.68369 3.13015,-10.41109 1.55018,-15.50837 l -54.875,-197.875 86.34375,-52.28125 35.9375,129.5625 c 1.27145,5.18285 4.71241,9.79703 9.31727,12.49404 4.60486,2.697 10.3125,3.44105 15.45488,2.0147 5.14238,-1.42636 9.65126,-5.00418 12.20892,-9.68787 2.55766,-4.68369 3.13015,-10.41109 1.55018,-15.50837 L 723.25,175.875 763.78125,151.3125 799.5625,280.28125 c 1.27145,5.18285 4.71241,9.79703 9.31727,12.49404 4.60486,2.697 10.3125,3.44105 15.45488,2.0147 5.14238,-1.42636 9.65126,-5.00418 12.20892,-9.68787 2.55766,-4.68369 3.13015,-10.41109 1.55018,-15.50837 l -38.78125,-139.8125 34.625,-20.96875 36.15625,130.3125 c 1.27145,5.18285 4.71241,9.79703 9.31727,12.49404 4.60486,2.697 10.3125,3.44105 15.45488,2.0147 5.14238,-1.42636 9.65126,-5.00418 12.20892,-9.68787 2.55766,-4.68369 3.13015,-10.41109 1.55018,-15.50837 l -39.15625,-141.15625 38.75,-23.46875 c 3.73694,-2.193832 6.72602,-5.636613 8.37353,-9.644521 1.64751,-4.007908 1.94385,-8.557579 0.83016,-12.745337 -1.11369,-4.187757 -3.63092,-7.989189 -7.0517,-10.649236 -3.42079,-2.660047 -7.72519,-4.163204 -12.05824,-4.210906 z"
       id="path3049"
       inkscape:connector-curvature="0"
       sodipodi:nodetypes="ccccscsccccscccscccscccccscscccssscccssscccsssccccsssccccsssccccsssccccssscccsssc" />
  </g>
</svg>
