<?xml version="1.0" encoding="UTF-8"?>
<!DOCTYPE svg PUBLIC "-//W3C//DTD SVG 1.1//EN" "http://www.w3.org/Graphics/SVG/1.1/DTD/svg11.dtd">
<svg xmlns="http://www.w3.org/2000/svg" version="1.1" width="857px" height="553px" style="shape-rendering:geometricPrecision; text-rendering:geometricPrecision; image-rendering:optimizeQuality; fill-rule:evenodd; clip-rule:evenodd" xmlns:xlink="http://www.w3.org/1999/xlink">
<g><path style="opacity:0.875" fill="#3a2915" d="M 807.5,20.5 C 829.826,19.325 838.66,29.6583 834,51.5C 832.533,54.2664 830.7,56.7664 828.5,59C 815,67.5844 801.333,75.9177 787.5,84C 801.049,131.027 814.216,178.194 827,225.5C 827.5,244.331 818.334,252.831 799.5,251C 794.259,249.761 790.092,246.928 787,242.5C 773.847,197.556 760.847,152.556 748,107.5C 737.918,114.125 727.751,120.625 717.5,127C 730.405,172.783 743.238,218.616 756,264.5C 758.004,285.495 748.504,294.662 727.5,292C 721,289.5 716.5,285 714,278.5C 702.321,236.117 690.488,193.783 678.5,151.5C 677.998,150.479 677.332,150.312 676.5,151C 664.665,158.083 652.998,165.417 641.5,173C 654.405,218.783 667.238,264.616 680,310.5C 682.538,330.628 673.705,340.128 653.5,339C 646.996,337.177 642.163,333.344 639,327.5C 626.82,283.777 614.486,240.111 602,196.5C 574.25,212.957 546.75,229.79 519.5,247C 538.638,314.222 557.305,381.555 575.5,449C 572.833,465.511 563.166,472.511 546.5,470C 540.159,468.325 535.659,464.492 533,458.5C 515.464,396.224 498.13,333.891 481,271.5C 480.586,271.043 480.086,270.709 479.5,270.5C 389.417,325.292 299.25,379.959 209,434.5C 208.837,436.387 209.671,437.887 211.5,439C 234.167,457 256.833,475 279.5,493C 287.401,501.948 288.568,511.781 283,522.5C 273.417,532.726 262.583,534.226 250.5,527C 225.274,506.14 199.774,485.64 174,465.5C 177.168,480.175 180.668,494.841 184.5,509.5C 182.396,526.054 173.063,533.221 156.5,531C 151.259,529.761 147.092,526.928 144,522.5C 139.267,508.967 134.934,495.3 131,481.5C 104.25,497.792 77.4163,513.959 50.5,530C 38.2382,533.803 28.7382,530.303 22,519.5C 18.2832,508.831 20.4499,499.664 28.5,492C 58.8333,473.667 89.1667,455.333 119.5,437C 86.284,319.973 53.4506,202.806 21,85.5C 18.8333,65 28,55.8333 48.5,58C 54.8413,59.6748 59.3413,63.5082 62,69.5C 94.3501,183.713 126.183,298.047 157.5,412.5C 159.308,412.509 160.975,412.009 162.5,411C 193.417,392.292 224.25,373.459 255,354.5C 274.765,311.137 294.932,267.971 315.5,225C 281.515,230.629 247.515,236.462 213.5,242.5C 196.772,240.597 189.605,231.264 192,214.5C 220.067,165.369 248.4,116.369 277,67.5C 283.242,58.6374 291.742,55.4708 302.5,58C 315.045,62.9179 319.879,72.0846 317,85.5C 297.686,120.128 277.852,154.461 257.5,188.5C 258.5,188.833 259.5,189.167 260.5,189.5C 291.446,183.509 322.446,177.842 353.5,172.5C 371.807,175.091 378.64,185.425 374,203.5C 356.719,240.367 339.886,277.034 323.5,313.5C 371.333,284.751 419,255.751 466.5,226.5C 467.476,223.503 467.31,220.503 466,217.5C 456.511,183.878 447.178,150.211 438,116.5C 435.839,103.317 441.005,94.4834 453.5,90C 467.452,87.6319 476.618,93.1319 481,106.5C 489.546,138.358 498.546,170.024 508,201.5C 607.846,141.002 707.68,80.6687 807.5,20.5 Z"/></g>
<g><path style="opacity:1" fill="#fd9f00" d="M 808.5,23.5 C 826.988,22.8539 834.488,31.5206 831,49.5C 829.623,51.7538 828.123,53.9205 826.5,56C 812.75,64.6254 798.917,73.1254 785,81.5C 784.833,82.3333 784.667,83.1667 784.5,84C 797.149,130.49 809.983,176.99 823,223.5C 825.182,240.65 817.682,248.816 800.5,248C 795.451,246.283 791.618,243.116 789,238.5C 776.47,193.078 763.637,147.745 750.5,102.5C 738.035,109.801 725.702,117.301 713.5,125C 726.871,172.113 740.038,219.279 753,266.5C 753.988,283.178 746.155,290.678 729.5,289C 724.065,287.231 720.232,283.731 718,278.5C 705.871,234.447 693.538,190.447 681,146.5C 678.758,145.825 676.591,146.325 674.5,148C 662.333,155.5 650.167,163 638,170.5C 650.666,217.819 663.666,265.152 677,312.5C 679.175,324.65 674.341,332.483 662.5,336C 653.185,337.426 646.352,333.926 642,325.5C 629.879,280.844 617.379,236.344 604.5,192C 603.092,191.685 601.759,192.018 600.5,193C 572,210.082 543.666,227.416 515.5,245C 534.231,311.088 552.731,377.255 571,443.5C 572.5,460.667 564.667,468.5 547.5,467C 542.08,465.212 538.247,461.712 536,456.5C 518.61,392.265 500.61,328.265 482,264.5C 388.583,321.459 295.083,378.292 201.5,435C 226.711,455.88 252.211,476.38 278,496.5C 287.025,510.102 284.192,520.602 269.5,528C 264.56,529.041 259.894,528.374 255.5,526C 226.022,502.69 196.689,479.19 167.5,455.5C 167.167,455.833 166.833,456.167 166.5,456.5C 172.189,473.76 176.856,491.26 180.5,509C 179.615,522.778 172.282,529.112 158.5,528C 153.761,526.881 149.928,524.381 147,520.5C 142.834,508.354 139.167,496.02 136,483.5C 135.273,480.845 134.106,478.512 132.5,476.5C 104.666,493.585 76.6658,510.418 48.5,527C 36.7968,529.898 28.6301,525.731 24,514.5C 22.3117,506.711 24.4784,500.211 30.5,495C 60.6672,476.415 91.0005,458.082 121.5,440C 122.097,438.938 122.43,437.772 122.5,436.5C 90.4585,319.996 57.9585,203.663 25,87.5C 20.9393,72.4337 26.4393,63.4337 41.5,60.5C 50.3708,61.0162 56.5374,65.3496 60,73.5C 91.976,188.542 124.143,303.542 156.5,418.5C 190.25,398.543 223.75,378.21 257,357.5C 278.645,311.712 300.145,265.878 321.5,220C 285.274,225.929 249.107,232.429 213,239.5C 199.391,237.223 193.391,229.223 195,215.5C 223.333,166.833 251.667,118.167 280,69.5C 288.006,59.2732 297.506,57.7732 308.5,65C 314.559,71.1561 316.059,78.3228 313,86.5C 292.167,122.167 271.333,157.833 250.5,193.5C 251,193.833 251.5,194.167 252,194.5C 285.631,187.951 319.297,181.617 353,175.5C 369.421,178.347 375.088,187.68 370,203.5C 351.112,243.248 332.945,282.915 315.5,322.5C 367.583,290.708 419.75,259.041 472,227.5C 462.157,189.804 451.824,152.137 441,114.5C 441.002,99.4978 448.502,92.3312 463.5,93C 471.408,95.2425 476.241,100.409 478,108.5C 486.656,139.785 495.322,171.118 504,202.5C 504.196,204.286 505.029,205.619 506.5,206.5C 607.23,145.474 707.897,84.4743 808.5,23.5 Z"/></g>
</svg>
